<?xml version="1.0" encoding="utf-8"?>
<!-- Generator: Adobe Illustrator 24.1.2, SVG Export Plug-In . SVG Version: 6.00 Build 0)  -->
<svg version="1.1" id="Ebene_1" xmlns="http://www.w3.org/2000/svg" xmlns:xlink="http://www.w3.org/1999/xlink" x="0px" y="0px"
	 viewBox="0 0 412 508" style="enable-background:new 0 0 412 508;" xml:space="preserve">
<style type="text/css">
	.st0{fill:#FFFFFF;}
</style>
<path class="st0" d="M332,499.5H141c-44.1,0-80-35.9-80-80v-271c0-44.1,35.9-80,80-80h191c44.1,0,80,35.9,80,80v271
	C412,463.6,376.1,499.5,332,499.5z M141,108.5c-22.1,0-40,17.9-40,40v271c0,22.1,17.9,40,40,40h191c22.1,0,40-17.9,40-40v-271
	c0-22.1-17.9-40-40-40H141z M0,386.5v-302c0-44.1,35.2-80,78.5-80h217.9c10.8,0,19.6,9,19.6,20s-8.8,20-19.6,20H78.5
	c-21.6,0-39.3,17.9-39.3,40v302c0,11-8.8,20-19.6,20S0,397.5,0,386.5z"/>
</svg>
